<svg id="Calque_2" data-name="Calque 2" xmlns="http://www.w3.org/2000/svg" xmlns:xlink="http://www.w3.org/1999/xlink" viewBox="0 0 324 324">
  <defs>
    <style>
      .cls-1 {
        fill: url(#Dégradé_sans_nom_173-13);
      }

      .cls-1, .cls-2, .cls-3, .cls-4, .cls-5, .cls-6, .cls-7, .cls-8, .cls-9, .cls-10, .cls-11, .cls-12, .cls-13, .cls-14 {
        stroke-width: 0px;
      }

      .cls-2 {
        fill: url(#Dégradé_sans_nom_173-2);
      }

      .cls-3 {
        fill: url(#Dégradé_sans_nom_173-10);
      }

      .cls-4 {
        fill: url(#Dégradé_sans_nom_173-4);
      }

      .cls-5 {
        fill: url(#Dégradé_sans_nom_173-11);
      }

      .cls-6 {
        fill: url(#Dégradé_sans_nom_173-6);
      }

      .cls-7 {
        fill: url(#Dégradé_sans_nom_173-5);
      }

      .cls-8 {
        fill: url(#Dégradé_sans_nom_173-14);
      }

      .cls-9 {
        fill: url(#Dégradé_sans_nom_173-7);
      }

      .cls-10 {
        fill: url(#Dégradé_sans_nom_173-3);
      }

      .cls-11 {
        fill: url(#Dégradé_sans_nom_173);
      }

      .cls-12 {
        fill: url(#Dégradé_sans_nom_173-12);
      }

      .cls-13 {
        fill: url(#Dégradé_sans_nom_173-8);
      }

      .cls-14 {
        fill: url(#Dégradé_sans_nom_173-9);
      }
    </style>
    <linearGradient id="Dégradé_sans_nom_173" data-name="Dégradé sans nom 173" x1="175.45" y1="123.25" x2="176.11" y2="123.25" gradientUnits="userSpaceOnUse">
      <stop offset="0" stop-color="#30d6ff"/>
      <stop offset=".2" stop-color="#2ed1fb"/>
      <stop offset=".44" stop-color="#2bc2ef"/>
      <stop offset=".7" stop-color="#24abdd"/>
      <stop offset=".96" stop-color="#1c8bc3"/>
      <stop offset="1" stop-color="#1b86bf"/>
    </linearGradient>
    <linearGradient id="Dégradé_sans_nom_173-2" data-name="Dégradé sans nom 173" x1="0" y1="162" x2="324" y2="162" xlink:href="#Dégradé_sans_nom_173"/>
    <linearGradient id="Dégradé_sans_nom_173-3" data-name="Dégradé sans nom 173" x1="35.51" y1="88.57" x2="141.39" y2="88.57" xlink:href="#Dégradé_sans_nom_173"/>
    <linearGradient id="Dégradé_sans_nom_173-4" data-name="Dégradé sans nom 173" x1="182.61" y1="88.58" x2="288.48" y2="88.58" xlink:href="#Dégradé_sans_nom_173"/>
    <linearGradient id="Dégradé_sans_nom_173-5" data-name="Dégradé sans nom 173" x1="35.51" y1="236.25" x2="288.48" y2="236.25" xlink:href="#Dégradé_sans_nom_173"/>
    <linearGradient id="Dégradé_sans_nom_173-6" data-name="Dégradé sans nom 173" x1="136.18" y1="144.24" x2="181.65" y2="144.24" xlink:href="#Dégradé_sans_nom_173"/>
    <linearGradient id="Dégradé_sans_nom_173-7" data-name="Dégradé sans nom 173" x1="110.91" y1="138.96" x2="184.84" y2="138.96" xlink:href="#Dégradé_sans_nom_173"/>
    <linearGradient id="Dégradé_sans_nom_173-8" data-name="Dégradé sans nom 173" x1="78.46" y1="162" x2="245.54" y2="162" xlink:href="#Dégradé_sans_nom_173"/>
    <linearGradient id="Dégradé_sans_nom_173-9" data-name="Dégradé sans nom 173" x1="30.15" y1="162" x2="59.29" y2="162" xlink:href="#Dégradé_sans_nom_173"/>
    <linearGradient id="Dégradé_sans_nom_173-10" data-name="Dégradé sans nom 173" x1="144.83" y1="40.88" x2="179.16" y2="40.88" xlink:href="#Dégradé_sans_nom_173"/>
    <linearGradient id="Dégradé_sans_nom_173-11" data-name="Dégradé sans nom 173" x1="263.77" y1="153.13" x2="298.51" y2="153.13" xlink:href="#Dégradé_sans_nom_173"/>
    <linearGradient id="Dégradé_sans_nom_173-12" data-name="Dégradé sans nom 173" x1="270.96" y1="161.73" x2="291.49" y2="161.73" xlink:href="#Dégradé_sans_nom_173"/>
    <linearGradient id="Dégradé_sans_nom_173-13" data-name="Dégradé sans nom 173" x1="277.78" y1="172.16" x2="284.14" y2="172.16" xlink:href="#Dégradé_sans_nom_173"/>
    <linearGradient id="Dégradé_sans_nom_173-14" data-name="Dégradé sans nom 173" x1="156.34" y1="42.1" x2="168.38" y2="42.1" xlink:href="#Dégradé_sans_nom_173"/>
  </defs>
  <g id="Calque_1-2" data-name="Calque 1">
    <g>
      <path class="cls-11" d="m175.45,123.69l.66-.66-.21-.21c-.15.29-.3.58-.45.87Z"/>
      <path class="cls-2" d="m162,0C72.67,0,0,72.67,0,162s72.67,162,162,162,162-72.67,162-162S251.33,0,162,0Zm0,304c-78.3,0-142-63.7-142-142S83.7,20,162,20s142,63.7,142,142-63.7,142-142,142Z"/>
      <path class="cls-10" d="m51.75,140.64c8.66-44.87,44.13-80.3,89.02-88.92-.79-2.28-1.21-4.73-1.21-7.28,0-3.17.65-6.18,1.83-8.9-54.24,8.82-97.16,51.8-105.88,106.06,2.85-1.31,6.02-2.04,9.36-2.04,2.4,0,4.71.38,6.88,1.08Z"/>
      <path class="cls-4" d="m183.23,51.72c44.88,8.62,80.34,44.06,89.02,88.91,2.17-.69,4.47-1.07,6.86-1.07,3.35,0,6.52.74,9.37,2.05-8.72-54.26-51.63-97.25-105.87-106.06,1.18,2.72,1.83,5.73,1.83,8.89,0,2.55-.42,5-1.21,7.28Z"/>
      <path class="cls-7" d="m272.25,183.37c-10.01,51.74-55.64,90.93-110.25,90.93s-100.26-39.2-110.25-90.94c-2.17.7-4.48,1.08-6.88,1.08-3.34,0-6.51-.73-9.36-2.04,9.8,60.98,62.79,107.71,126.49,107.71s116.68-46.74,126.48-107.72c-2.85,1.31-6.02,2.05-9.37,2.05-2.39,0-4.7-.38-6.86-1.07Z"/>
      <path class="cls-6" d="m158.91,121.41c-13.28-.02-22.72,9.55-22.72,23.04,0,12.31,10.07,22.5,22.35,22.61,12.67.11,23.07-10.11,23.12-22.73.05-12.88-9.89-22.9-22.75-22.92Zm-7.98,17.32c-3.32.04-5.56-2.16-5.56-5.47,0-3.01,2.35-5.36,5.41-5.4,3.27-.04,5.56,2.21,5.56,5.48,0,3.07-2.29,5.35-5.41,5.39Z"/>
      <path class="cls-9" d="m180.46,102.72c-8.46-3.99-17.3-5.55-26.66-4.5-24.26,2.72-42.87,23.18-42.89,49.88.15,9.59,4.4,20.18,12.12,29.46,1.6,1.93,3.5,3.08,6.13,2.13,4.12-1.49,4.61-5.34,1.17-9.3-13.28-15.3-12.66-37.81,1.98-51.78,11.4-10.88,24.92-13.95,39.99-8.56,2.01.72,3.84,1.92,5.81,2.77,2.66,1.15,5,.19,6.22-2.43,1.37-2.92-.03-5.87-3.87-7.68Z"/>
      <path class="cls-13" d="m162.01,69.01c-46.14,0-83.54,37.4-83.54,83.54,0,37.53,24.76,69.28,58.84,79.81,2.07.79,4.16,1.95,5.69,3.47,5.67,5.62,11.05,11.53,16.58,17.29,2.39,2.49,2.66,2.51,5.1-.04,5.52-5.76,10.93-11.64,16.51-17.34,1.19-1.22,2.8-2.26,4.41-2.78,8.75-2.85,16.54-6.63,23.4-11.34.46-.32.91-.63,1.36-.95.55-.39,1.09-.79,1.62-1.19.48-.35.94-.7,1.4-1.07.47-.36.93-.73,1.39-1.12,18.78-15.3,30.77-38.62,30.77-64.74,0-46.14-37.4-83.54-83.53-83.54Zm44.66,115.46c-10.08,13.35-22.02,25.01-34.2,36.42-3.26,3.05-6.45,6.17-10.04,9.62-7.63-7.2-14.93-13.83-21.93-20.76-9.38-9.27-18.57-18.77-25.69-29.95-9.85-15.48-13.18-32.33-7.58-49.94,7.33-23.05,23.84-36.18,47.56-39.73,28.09-4.21,55.04,13.2,62.95,40.36,5.78,19.83,1.15,37.79-11.07,53.98Z"/>
      <path class="cls-14" d="m44.05,180.35c3.71.29,4.95-2.48,5.69-5.51.24,0,.47,0,.7-.01,1.73-.02,3.37-.1,4.99.04,2.75.24,3.92-.74,3.85-3.62-.14-5.97-.08-11.96,0-17.94.02-1.65-.6-2.36-2.17-2.37-2.3-.01-4.6,0-6.88,0h-.36c-.16-5.22-1.26-6.92-4.48-7.25-3.38-.35-4.48.88-6.32,7.21-1.54,0-3.12,0-4.71,0h-1.95c-1.57-.01-2.28.67-2.27,2.31.06,6.47.06,12.94.05,19.41,0,1.58.63,2.32,2.29,2.26.68-.02,1.36-.03,2.04-.04,1.59-.01,3.22.02,4.97.02.54,2.74,1.46,5.24,4.55,5.49Zm.54-33.53c.52-.12,1.3.89,2.53,1.83-1.2.81-1.92,1.68-2.51,1.6-.68-.09-1.81-1.13-1.73-1.57.14-.74.99-1.7,1.71-1.86Zm-3.79,6.88c3.07.01,6.14.1,9.21.05.37,0,.73-.01,1.09-.02,3.01-.09,2.46,2.04,2.66,3.82.26,2.2-.84,2.64-2.77,2.61-.42,0-.84,0-1.26-.02-4.56-.06-9.15-.01-13.85-.01-1-6.32-.89-6.46,4.92-6.43Zm-5.17,15.49c-.1-1.73.15-3.48.26-5.36h17.48c.13,2.27.26,4.37.42,7.23-1.25,0-2.49,0-3.72.01-4.45,0-8.76.01-13.08-.09-.49-.01-1.32-1.14-1.36-1.79Z"/>
      <path class="cls-3" d="m148.23,55.6c4.57-.07,9.15-.02,13.72-.02,0,.05,0,.09,0,.14,4.14,0,8.28.02,12.42,0,4.16-.03,4.6-.34,4.71-4.39.14-5.01.05-10.02.03-15.03-.02-5.77-.76-6.58-6.41-6.36-2.21.09-3.86-.31-5.42-2.08-2.27-2.58-5.7-2.24-8.45-.07-1.39,1.1-3.31,1.7-5.09,2.09-1.56.34-3.25.03-4.89.05-2.48.03-3.95,1.3-3.99,3.79-.08,6.21-.02,12.42-.05,18.63-.01,2.34,1.08,3.31,3.4,3.27Zm1.9-20.41h23.87c0,4.69.08,9.3-.1,13.9-.02.61-1.37,1.65-2.12,1.67-6.42.14-12.85.17-19.28,0-.81-.02-2.22-1.37-2.26-2.16-.22-4.33-.11-8.67-.11-13.41Z"/>
      <path class="cls-5" d="m296.18,152.62c-4.6-3.09-9.71-4.66-16.19-4.56-4.73-.18-9.67,1.82-14.26,4.88-1.45.97-2.65,2.11-1.5,3.91,1.12,1.75,2.5,1.66,4.31.54,8.11-5.02,16.36-5.46,24.56-.12,1.88,1.22,3.68,1.37,4.96-.6,1.34-2.06-.53-3.16-1.87-4.06Z"/>
      <path class="cls-12" d="m289.96,161.04c-2.64-1.28-5.44-2.23-8.18-3.31-3.86.59-7.29,1.22-10.03,3.74-.56.52-1.01,2.07-.7,2.43.75.86,2.36,2.09,2.97,1.79,4.66-2.23,9.12-2.56,13.87-.21.71.35,2.37-1.23,3.59-1.92-.5-.87-.78-2.17-1.53-2.53Z"/>
      <path class="cls-1" d="m284.13,171.52c-.2-1.23-1.93-2.93-3.2-3.12-1.96-.3-3.46,1.42-3.1,3.44.22,1.22,1.66,2.22,3.21,4.13,1.52-2.06,3.25-3.41,3.09-4.45Z"/>
      <polygon class="cls-8" points="158.64 47.82 162.36 45.87 166.08 47.82 165.37 43.68 168.38 40.74 164.22 40.14 162.36 36.37 160.5 40.14 156.34 40.74 159.35 43.68 158.64 47.82"/>
    </g>
  </g>
</svg>